<svg width="62" height="63" viewBox="0 0 62 63" fill="none" xmlns="http://www.w3.org/2000/svg">
<rect x="1.7821" y="1.83594" width="58.8364" height="60.0532" rx="14" fill="url(#paint0_linear_218_10)" stroke="white" stroke-width="2"/>
<path d="M27.919 42.3625C27.9589 42.3981 28.0093 42.4196 28.0625 42.4238C28.1157 42.4281 28.1688 42.4148 28.2138 42.3861C28.2588 42.3574 28.2932 42.3148 28.3117 42.2647C28.3303 42.2146 28.332 42.1599 28.3165 42.1088L25.1665 31.3113C25.138 31.213 25.08 31.1259 25.0005 31.0615C24.9209 30.9972 24.8236 30.9587 24.7215 30.9513C24.2115 30.9138 23.7028 30.8725 23.194 30.8263L18.9815 30.4425C18.937 30.4382 18.8921 30.446 18.8517 30.4652C18.8112 30.4843 18.7767 30.5141 18.7519 30.5513C18.727 30.5885 18.7127 30.6317 18.7104 30.6764C18.7081 30.7211 18.718 30.7655 18.739 30.805C21.0178 35.0675 24.299 39.1301 27.919 42.3625ZM31.009 44.6451C31.034 44.7325 31.109 44.7976 31.2003 44.7976C31.2444 44.7963 31.2869 44.7807 31.3213 44.7532C31.3558 44.7257 31.3805 44.6877 31.3915 44.6451L35.2465 31.4288C35.258 31.3904 35.2601 31.3499 35.2526 31.3105C35.2451 31.2712 35.2283 31.2342 35.2036 31.2027C35.1788 31.1712 35.1469 31.1462 35.1104 31.1296C35.0739 31.113 35.034 31.1055 34.994 31.1075C32.466 31.216 29.9345 31.216 27.4065 31.1075C27.3667 31.1055 27.3269 31.1131 27.2906 31.1296C27.2543 31.1461 27.2224 31.171 27.1977 31.2024C27.173 31.2337 27.1561 31.2705 27.1485 31.3097C27.1409 31.3488 27.1428 31.3893 27.154 31.4276L31.009 44.6451ZM34.084 42.1088C34.014 42.3463 34.2965 42.5275 34.4815 42.3625C38.1015 39.1288 41.3828 35.0675 43.6615 30.805C43.6825 30.7656 43.6923 30.7213 43.6901 30.6767C43.6879 30.6322 43.6737 30.589 43.649 30.5519C43.6242 30.5147 43.5899 30.485 43.5497 30.4657C43.5094 30.4465 43.4647 30.4385 43.4203 30.4425L39.2078 30.8263C38.6978 30.8725 38.189 30.9138 37.679 30.9513C37.577 30.9587 37.4796 30.9972 37.4001 31.0615C37.3206 31.1259 37.2626 31.213 37.234 31.3113L34.084 42.1088ZM43.4515 28.5575C43.4951 28.5537 43.5369 28.5385 43.5728 28.5135C43.6087 28.4884 43.6374 28.4544 43.656 28.4148C43.6746 28.3752 43.6824 28.3314 43.6788 28.2878C43.6752 28.2442 43.6602 28.2023 43.6353 28.1663L39.5878 22.2975C39.4153 22.0476 39.1847 21.8433 38.9158 21.7022C38.6469 21.5611 38.3477 21.4875 38.044 21.4875H34.9315C34.8905 21.4875 34.8501 21.4977 34.8138 21.517C34.7776 21.5363 34.7467 21.5643 34.7239 21.5984C34.701 21.6325 34.6869 21.6717 34.6828 21.7125C34.6787 21.7533 34.6847 21.7946 34.7003 21.8325L37.5215 28.7363C37.5616 28.834 37.6316 28.9164 37.7214 28.9719C37.8112 29.0273 37.9163 29.053 38.0215 29.0451C38.359 29.0188 38.699 28.99 39.0378 28.9575L43.4515 28.5575ZM32.6565 21.795C32.6185 21.7038 32.5542 21.6259 32.4719 21.5712C32.3896 21.5164 32.2929 21.4873 32.194 21.4875H30.2065C30.1077 21.4873 30.011 21.5164 29.9287 21.5712C29.8463 21.6259 29.7821 21.7038 29.744 21.795L26.7965 28.8675C26.7813 28.9046 26.7751 28.9447 26.7786 28.9846C26.7821 29.0245 26.7951 29.0629 26.8165 29.0967C26.838 29.1305 26.8672 29.1587 26.9018 29.1789C26.9364 29.199 26.9753 29.2106 27.0153 29.2125C29.8028 29.3475 32.5978 29.3475 35.3865 29.2125C35.4264 29.2104 35.4652 29.1987 35.4996 29.1785C35.534 29.1582 35.5631 29.13 35.5844 29.0962C35.6057 29.0625 35.6186 29.0241 35.622 28.9843C35.6254 28.9445 35.6193 28.9045 35.604 28.8675L32.6565 21.795ZM27.7003 21.8325C27.7159 21.7946 27.7219 21.7533 27.7178 21.7125C27.7137 21.6717 27.6996 21.6325 27.6767 21.5984C27.6538 21.5643 27.6229 21.5363 27.5867 21.517C27.5505 21.4977 27.5101 21.4875 27.469 21.4875H24.3565C24.0529 21.4875 23.7537 21.5611 23.4848 21.7022C23.2159 21.8433 22.9853 22.0476 22.8128 22.2975L18.7653 28.1663C18.7404 28.2023 18.7254 28.2442 18.7218 28.2878C18.7181 28.3314 18.726 28.3752 18.7446 28.4148C18.7632 28.4544 18.7919 28.4884 18.8278 28.5135C18.8636 28.5385 18.9054 28.5537 18.949 28.5575L23.3628 28.9575C23.7015 28.99 24.0403 29.0188 24.379 29.0451C24.4843 29.0532 24.5895 29.0276 24.6793 28.9721C24.7692 28.9166 24.8391 28.8341 24.879 28.7363L27.7003 21.8325Z" fill="#FFC700"/>
<defs>
<linearGradient id="paint0_linear_218_10" x1="55.5349" y1="62.8891" x2="-5.30154" y2="-8.8979" gradientUnits="userSpaceOnUse">
<stop stop-color="#8945EC"/>
<stop offset="1" stop-color="#8945EC" stop-opacity="0.5"/>
</linearGradient>
</defs>
</svg>
