<svg width="36" height="36" viewBox="0 0 36 36" fill="none" xmlns="http://www.w3.org/2000/svg">
<circle cx="17.6298" cy="17.9741" r="31.2078" transform="rotate(-180 17.6298 17.9741)" fill="white"/>
<circle cx="17.6298" cy="17.9741" r="29.7078" transform="rotate(-180 17.6298 17.9741)" stroke="#D9D9D9" stroke-opacity="0.35" stroke-width="3"/>
<path fill-rule="evenodd" clip-rule="evenodd" d="M12.2236 19.0051C11.9502 18.7317 11.7966 18.3608 11.7966 17.9741C11.7966 17.5874 11.9502 17.2165 12.2236 16.9431L20.4734 8.69327C20.6079 8.55398 20.7689 8.44288 20.9468 8.36645C21.1247 8.29002 21.3161 8.24979 21.5097 8.24811C21.7033 8.24643 21.8954 8.28333 22.0746 8.35665C22.2538 8.42998 22.4167 8.53827 22.5536 8.67519C22.6905 8.81212 22.7988 8.97494 22.8721 9.15417C22.9454 9.33339 22.9823 9.52542 22.9807 9.71906C22.979 9.9127 22.9387 10.1041 22.8623 10.282C22.7859 10.4599 22.6748 10.6208 22.5355 10.7554L15.3168 17.9741L22.5355 25.1929C22.8011 25.4679 22.9481 25.8363 22.9448 26.2186C22.9415 26.601 22.7881 26.9668 22.5177 27.2372C22.2474 27.5076 21.8816 27.6609 21.4992 27.6643C21.1168 27.6676 20.7485 27.5206 20.4734 27.2549L12.2236 19.0051Z" fill="#D99BFF" fill-opacity="0.58"/>
</svg>
