<svg width="36" height="36" viewBox="0 0 36 36" fill="none" xmlns="http://www.w3.org/2000/svg">
<circle cx="11.7474" cy="17.9742" r="29.7078" fill="white" stroke="#D9D9D9" stroke-width="3"/>
<path fill-rule="evenodd" clip-rule="evenodd" d="M17.1536 16.9431C17.427 17.2166 17.5806 17.5874 17.5806 17.9741C17.5806 18.3608 17.427 18.7317 17.1536 19.0052L8.90378 27.255C8.76925 27.3943 8.60833 27.5054 8.43041 27.5818C8.25249 27.6582 8.06113 27.6985 7.86749 27.7001C7.67385 27.7018 7.48182 27.6649 7.3026 27.5916C7.12337 27.5183 6.96055 27.41 6.82362 27.2731C6.68669 27.1361 6.57841 26.9733 6.50508 26.7941C6.43175 26.6149 6.39486 26.4228 6.39654 26.2292C6.39822 26.0355 6.43845 25.8442 6.51488 25.6663C6.59131 25.4883 6.70241 25.3274 6.8417 25.1929L14.0604 17.9741L6.8417 10.7554C6.57605 10.4803 6.42906 10.112 6.43238 9.7296C6.4357 9.34723 6.58907 8.98146 6.85946 8.71107C7.12985 8.44068 7.49562 8.28731 7.87799 8.28399C8.26036 8.28067 8.62874 8.42766 8.90378 8.69331L17.1536 16.9431Z" fill="#D99BFF"/>
</svg>
