<svg width="62" height="63" viewBox="0 0 62 63" fill="none" xmlns="http://www.w3.org/2000/svg">
<rect x="1.47412" y="1.06421" width="58.8364" height="60.0532" rx="14" fill="url(#paint0_linear_221_13)" stroke="white" stroke-width="2"/>
<path d="M32.0406 20.2754C31.9535 20.1881 31.8501 20.1189 31.7362 20.0716C31.6223 20.0243 31.5002 20 31.3769 20C31.2536 20 31.1315 20.0243 31.0176 20.0716C30.9037 20.1189 30.8002 20.1881 30.7131 20.2754C28.3825 22.6023 25.8062 23.7498 22.9375 23.7498C22.6889 23.7498 22.4504 23.8486 22.2746 24.0244C22.0988 24.2002 22 24.4387 22 24.6873V30.3142C22 36.3498 25.0769 40.4523 31.0787 42.4511C31.271 42.5152 31.479 42.5152 31.6713 42.4511C37.6713 40.4523 40.75 36.3498 40.75 30.3142V24.6873C40.75 24.4387 40.6512 24.2002 40.4754 24.0244C40.2996 23.8486 40.0611 23.7498 39.8125 23.7498C36.9419 23.7498 34.3656 22.6061 32.0406 20.2754ZM36.7262 27.7754C36.902 27.9512 37.0007 28.1896 37.0007 28.4382C37.0007 28.6868 36.902 28.9252 36.7262 29.1011L31.1012 34.7261C31.0142 34.8134 30.9107 34.8826 30.7968 34.9299C30.6829 34.9771 30.5608 35.0015 30.4375 35.0015C30.3142 35.0015 30.1921 34.9771 30.0782 34.9299C29.9643 34.8826 29.8608 34.8134 29.7737 34.7261L26.9612 31.9136C26.7852 31.7375 26.6863 31.4988 26.6863 31.2498C26.6863 31.0008 26.7852 30.7621 26.9612 30.5861C27.1373 30.41 27.376 30.3111 27.625 30.3111C27.874 30.3111 28.1127 30.41 28.2888 30.5861L30.4375 32.7367L35.3988 27.7754C35.4858 27.6881 35.5893 27.6189 35.7032 27.5716C35.8171 27.5243 35.9392 27.5 36.0625 27.5C36.1858 27.5 36.3079 27.5243 36.4218 27.5716C36.5357 27.6189 36.6392 27.6881 36.7262 27.7754Z" fill="white"/>
<defs>
<linearGradient id="paint0_linear_221_13" x1="55.2269" y1="62.1174" x2="-5.60953" y2="-9.66963" gradientUnits="userSpaceOnUse">
<stop stop-color="#8945EC"/>
<stop offset="1" stop-color="#8945EC" stop-opacity="0.5"/>
</linearGradient>
</defs>
</svg>
