<svg width="61" height="68" viewBox="0 0 61 68" fill="none" xmlns="http://www.w3.org/2000/svg">
<rect x="1.0448" y="1.90918" width="58.8364" height="64.2205" rx="14" fill="url(#paint0_linear_230_12)" stroke="white" stroke-width="2"/>
<path d="M45.463 33.1462C45.463 40.395 38.7468 46.2712 30.463 46.2712C28.9774 46.2732 27.4979 46.0803 26.0624 45.6975C24.9674 46.2525 22.453 47.3175 18.223 48.0112C17.848 48.0712 17.563 47.6812 17.7111 47.3325C18.3749 45.765 18.9749 43.6762 19.1549 41.7712C16.858 39.465 15.463 36.4462 15.463 33.1462C15.463 25.8975 22.1793 20.0212 30.463 20.0212C38.7468 20.0212 45.463 25.8975 45.463 33.1462ZM24.838 33.1462C24.838 32.649 24.6405 32.172 24.2888 31.8204C23.9372 31.4688 23.4603 31.2712 22.963 31.2712C22.4657 31.2712 21.9888 31.4688 21.6372 31.8204C21.2856 32.172 21.088 32.649 21.088 33.1462C21.088 33.6435 21.2856 34.1204 21.6372 34.4721C21.9888 34.8237 22.4657 35.0212 22.963 35.0212C23.4603 35.0212 23.9372 34.8237 24.2888 34.4721C24.6405 34.1204 24.838 33.6435 24.838 33.1462ZM32.338 33.1462C32.338 32.649 32.1405 32.172 31.7888 31.8204C31.4372 31.4688 30.9603 31.2712 30.463 31.2712C29.9657 31.2712 29.4888 31.4688 29.1372 31.8204C28.7856 32.172 28.588 32.649 28.588 33.1462C28.588 33.6435 28.7856 34.1204 29.1372 34.4721C29.4888 34.8237 29.9657 35.0212 30.463 35.0212C30.9603 35.0212 31.4372 34.8237 31.7888 34.4721C32.1405 34.1204 32.338 33.6435 32.338 33.1462ZM37.963 35.0212C38.4603 35.0212 38.9372 34.8237 39.2888 34.4721C39.6405 34.1204 39.838 33.6435 39.838 33.1462C39.838 32.649 39.6405 32.172 39.2888 31.8204C38.9372 31.4688 38.4603 31.2712 37.963 31.2712C37.4657 31.2712 36.9888 31.4688 36.6372 31.8204C36.2856 32.172 36.088 32.649 36.088 33.1462C36.088 33.6435 36.2856 34.1204 36.6372 34.4721C36.9888 34.8237 37.4657 35.0212 37.963 35.0212Z" fill="#FFC700"/>
<defs>
<linearGradient id="paint0_linear_230_12" x1="54.7976" y1="67.1297" x2="-10.6847" y2="-5.27679" gradientUnits="userSpaceOnUse">
<stop stop-color="#8945EC"/>
<stop offset="1" stop-color="#8945EC" stop-opacity="0.5"/>
</linearGradient>
</defs>
</svg>
