<svg width="61" height="63" viewBox="0 0 61 63" fill="none" xmlns="http://www.w3.org/2000/svg">
<rect x="1.04456" y="1.55017" width="58.8364" height="60.0532" rx="14" fill="url(#paint0_linear_224_2)" stroke="white" stroke-width="2"/>
<path d="M24.248 17.4122C24.4967 17.4122 24.7351 17.511 24.911 17.6868C25.0868 17.8626 25.1855 18.1011 25.1855 18.3497V19.2872H28.9355V18.3497C28.9355 18.1011 29.0343 17.8626 29.2101 17.6868C29.386 17.511 29.6244 17.4122 29.873 17.4122C30.1217 17.4122 30.3601 17.511 30.536 17.6868C30.7118 17.8626 30.8105 18.1011 30.8105 18.3497V19.2872H34.5605V18.3497C34.5605 18.1011 34.6593 17.8626 34.8351 17.6868C35.0109 17.511 35.2494 17.4122 35.498 17.4122C35.7467 17.4122 35.9851 17.511 36.161 17.6868C36.3368 17.8626 36.4355 18.1011 36.4355 18.3497V19.2872C37.1815 19.2872 37.8968 19.5835 38.4243 20.111C38.9517 20.6384 39.248 21.3538 39.248 22.0997V26.8547C38.2744 27.0235 37.3769 27.4899 36.6793 28.1897L34.1649 30.706C34.0062 30.5949 33.8168 30.5359 33.623 30.5372H26.123C25.8744 30.5372 25.6359 30.636 25.4601 30.8118C25.2843 30.9876 25.1855 31.2261 25.1855 31.4747C25.1855 31.7234 25.2843 31.9618 25.4601 32.1376C25.6359 32.3135 25.8744 32.4122 26.123 32.4122H32.4587L28.6393 36.2297C28.4049 36.4641 28.1893 36.7154 27.9905 36.9797C27.9614 36.7537 27.8509 36.5461 27.6797 36.3956C27.5085 36.2451 27.2884 36.1622 27.0605 36.1622H26.123C25.8744 36.1622 25.6359 36.261 25.4601 36.4368C25.2843 36.6126 25.1855 36.8511 25.1855 37.0997C25.1855 37.3484 25.2843 37.5868 25.4601 37.7626C25.6359 37.9385 25.8744 38.0372 26.123 38.0372H27.0605C27.1605 38.0375 27.2599 38.0216 27.3549 37.9904C27.104 38.4764 26.9102 38.9898 26.7774 39.5204L26.2093 41.791C26.0506 42.4126 26.0966 43.0689 26.3405 43.6622H23.3105C22.5646 43.6622 21.8493 43.3659 21.3218 42.8385C20.7944 42.311 20.498 41.5957 20.498 40.8497V22.0997C20.498 21.3538 20.7944 20.6384 21.3218 20.111C21.8493 19.5835 22.5646 19.2872 23.3105 19.2872V18.3497C23.3105 18.1011 23.4093 17.8626 23.5851 17.6868C23.7609 17.511 23.9994 17.4122 24.248 17.4122ZM25.1855 25.8497C25.1855 26.0984 25.2843 26.3368 25.4601 26.5126C25.6359 26.6885 25.8744 26.7872 26.123 26.7872H33.623C33.8717 26.7872 34.1101 26.6885 34.286 26.5126C34.4618 26.3368 34.5605 26.0984 34.5605 25.8497C34.5605 25.6011 34.4618 25.3626 34.286 25.1868C34.1101 25.011 33.8717 24.9122 33.623 24.9122H26.123C25.8744 24.9122 25.6359 25.011 25.4601 25.1868C25.2843 25.3626 25.1855 25.6011 25.1855 25.8497ZM38.0068 29.5154C38.5555 28.9666 39.2998 28.6583 40.0759 28.6583C40.8519 28.6583 41.5962 28.9666 42.1449 29.5154C42.6937 30.0641 43.002 30.8084 43.002 31.5844C43.002 32.3605 42.6937 33.1047 42.1449 33.6535L34.103 41.6935C33.4359 42.3611 32.5999 42.8349 31.6843 43.0641L29.4137 43.6322C29.222 43.6803 29.0211 43.6778 28.8306 43.6251C28.6402 43.5724 28.4666 43.4713 28.3269 43.3316C28.1871 43.1918 28.086 43.0182 28.0333 42.8278C27.9806 42.6373 27.9781 42.4364 28.0262 42.2447L28.5962 39.976C28.8249 39.0591 29.2974 38.2229 29.9649 37.5572L38.0068 29.5154Z" fill="#FFC700"/>
<defs>
<linearGradient id="paint0_linear_224_2" x1="54.7973" y1="62.6033" x2="-6.03909" y2="-9.18366" gradientUnits="userSpaceOnUse">
<stop stop-color="#8945EC"/>
<stop offset="1" stop-color="#8945EC" stop-opacity="0.5"/>
</linearGradient>
</defs>
</svg>
