<svg width="62" height="63" viewBox="0 0 62 63" fill="none" xmlns="http://www.w3.org/2000/svg">
<rect x="1.58179" y="1.79749" width="58.8364" height="60.0532" rx="14" fill="url(#paint0_linear_221_16)" stroke="white" stroke-width="2"/>
<path d="M43.2151 20.662C43.1272 20.5699 43.0215 20.4965 42.9044 20.4465C42.7873 20.3964 42.6613 20.3707 42.5339 20.3708H42.5264C42.2126 20.4345 41.9339 20.5458 41.6826 20.6995L41.6939 20.6933C41.2714 20.907 40.8214 21.1458 40.3489 21.4108C39.8345 21.6937 39.2946 21.9277 38.7364 22.1095L38.6676 22.1295C38.0908 22.3337 37.4845 22.4426 36.8726 22.452H36.8676L36.8051 22.4533C36.3389 22.4533 35.8976 22.3458 35.5051 22.1533L35.5226 22.1608C34.5012 21.6607 33.4471 21.2301 32.3676 20.872L32.1751 20.8158C31.2094 20.5184 30.2043 20.3688 29.1939 20.372H29.1126H29.1164C26.8301 20.4729 24.6003 21.1146 22.6101 22.2445L22.6814 22.207C22.1814 22.4545 21.8289 22.6458 21.5989 22.787L21.3701 21.1108C21.7591 20.7737 22.0317 20.3224 22.1489 19.8212C22.2662 19.32 22.2221 18.7946 22.0229 18.3199C21.8238 17.8453 21.4798 17.4457 21.0401 17.1782C20.6003 16.9107 20.0873 16.7889 19.5743 16.8303C19.0612 16.8717 18.5743 17.0741 18.1832 17.4086C17.792 17.7432 17.5165 18.1927 17.396 18.6931C17.2755 19.1936 17.3162 19.7192 17.5122 20.1952C17.7083 20.6711 18.0497 21.0729 18.4876 21.3433L18.4976 21.3495L21.7976 45.5808C21.8964 46.287 22.4964 46.8245 23.2214 46.8258C23.2914 46.8258 23.3614 46.8208 23.4289 46.812L23.4214 46.8133C23.61 46.7885 23.7918 46.7267 23.9564 46.6314C24.1209 46.536 24.265 46.409 24.3803 46.2578C24.4956 46.1065 24.5797 45.9339 24.628 45.7499C24.6762 45.5659 24.6876 45.3742 24.6614 45.1858L24.6626 45.1933L23.3351 35.4545C25.2413 34.3914 27.3646 33.7763 29.5439 33.6558L29.5826 33.6545H29.5939C30.3676 33.6545 31.1139 33.777 31.8114 34.0045L31.7601 33.9908C32.3901 34.1789 32.9984 34.4328 33.5751 34.7483L33.5264 34.7233C33.9939 34.987 34.5414 35.2345 35.1114 35.4345L35.1839 35.457C35.7451 35.667 36.3939 35.7895 37.0701 35.7945H37.0726C39.0892 35.6686 41.044 35.0492 42.7651 33.9908L42.7114 34.022C42.9426 33.9095 43.1401 33.7695 43.3114 33.6008C43.4488 33.4357 43.517 33.2238 43.5014 33.0095V33.012V21.3433C43.5016 21.2166 43.4763 21.0912 43.4269 20.9746C43.3774 20.858 43.305 20.7525 43.2139 20.6645L43.2151 20.662Z" fill="#FFC700"/>
<defs>
<linearGradient id="paint0_linear_221_16" x1="55.3345" y1="62.8507" x2="-5.50186" y2="-8.93635" gradientUnits="userSpaceOnUse">
<stop stop-color="#8945EC"/>
<stop offset="1" stop-color="#8945EC" stop-opacity="0.5"/>
</linearGradient>
</defs>
</svg>
