<svg width="25" height="25" viewBox="0 0 25 25" fill="none" xmlns="http://www.w3.org/2000/svg">
<path fill-rule="evenodd" clip-rule="evenodd" d="M6.63355 4.98537C6.66036 4.75821 6.73984 4.54046 6.86566 4.34945C6.99149 4.15843 7.16018 3.99944 7.3583 3.88513C7.55642 3.77082 7.77849 3.70436 8.00683 3.69103C8.23518 3.67771 8.46348 3.71789 8.67355 3.80837C9.73555 4.26237 12.1155 5.34137 15.1355 7.08437C18.1565 8.82837 20.2815 10.3514 21.2045 11.0424C21.9925 11.6334 21.9945 12.8054 21.2055 13.3984C20.2915 14.0854 18.1925 15.5884 15.1355 17.3544C12.0755 19.1204 9.72355 20.1864 8.67155 20.6344C7.76555 21.0214 6.75155 20.4344 6.63355 19.4574C6.49555 18.3154 6.23755 15.7224 6.23755 12.2204C6.23755 8.72037 6.49455 6.12837 6.63355 4.98537Z" fill="#FFBE41"/>
</svg>
