<svg width="62" height="63" viewBox="0 0 62 63" fill="none" xmlns="http://www.w3.org/2000/svg">
<rect x="1.81775" y="1.03485" width="58.8364" height="60.0532" rx="14" fill="url(#paint0_linear_209_4)" stroke="white" stroke-width="2"/>
<path d="M39.9862 38.5618H22.49C22.5025 40.3081 22.5925 42.2018 23.22 42.8293C23.9525 43.5618 25.1312 43.5618 27.4875 43.5618H34.9875C37.345 43.5618 38.5237 43.5618 39.2562 42.8293C39.8837 42.2018 39.9725 40.3081 39.9862 38.5618Z" fill="#FFC700"/>
<path opacity="0.5" d="M24.9875 22.3118C23.5509 22.3109 22.1578 22.8049 21.0427 23.7107C19.9277 24.6165 19.1587 25.8788 18.8652 27.2851C18.5717 28.6914 18.7717 30.1559 19.4314 31.432C20.0912 32.7082 21.1704 33.7181 22.4875 34.2918V38.5618H39.9875V34.2918C41.3766 33.6856 42.4982 32.5954 43.1435 31.224C43.7888 29.8527 43.914 28.2935 43.4956 26.8368C43.0772 25.38 42.1438 24.1249 40.8692 23.3049C39.5945 22.485 38.0653 22.156 36.5662 22.3793C36.1882 21.266 35.471 20.299 34.5153 19.6142C33.5595 18.9293 32.4133 18.561 31.2375 18.561C30.0617 18.561 28.9155 18.9293 27.9597 19.6142C27.004 20.299 26.2867 21.266 25.9087 22.3793C25.6037 22.3343 25.2958 22.3118 24.9875 22.3118Z" fill="#FFBE41"/>
<defs>
<linearGradient id="paint0_linear_209_4" x1="55.5705" y1="62.088" x2="-5.2659" y2="-9.69898" gradientUnits="userSpaceOnUse">
<stop stop-color="#8945EC"/>
<stop offset="1" stop-color="#8945EC" stop-opacity="0.5"/>
</linearGradient>
</defs>
</svg>
