<svg width="61" height="63" viewBox="0 0 61 63" fill="none" xmlns="http://www.w3.org/2000/svg">
<rect x="1.03491" y="1.37512" width="58.8364" height="60.0532" rx="14" fill="url(#paint0_linear_230_11)" stroke="white" stroke-width="2"/>
<path d="M30.4531 18.7018L25.7406 21.6518H21.7031V24.1518L19.1656 25.7643C18.4406 26.2018 17.9531 26.9893 17.9531 27.9018V40.4018C17.9531 41.0648 18.2165 41.7007 18.6854 42.1695C19.1542 42.6384 19.7901 42.9018 20.4531 42.9018H40.4531C41.8406 42.9018 42.9531 41.7893 42.9531 40.4018V27.9018C42.9531 26.9893 42.4656 26.2018 41.7406 25.7643L39.2031 24.1518V21.6518H35.1656M24.2031 24.1518H36.7031V30.2518L30.4531 34.1518L24.2031 30.2518M25.4531 25.4018V27.2768H35.4531V25.4018M21.7031 27.1268V28.6893L20.4531 27.9018M39.2031 27.1268L40.4531 27.9018L39.2031 28.6893M25.4531 28.5268V30.4018H35.4531V28.5268H25.4531Z" fill="#FFC700"/>
<defs>
<linearGradient id="paint0_linear_230_11" x1="54.7877" y1="62.4283" x2="-6.04873" y2="-9.35871" gradientUnits="userSpaceOnUse">
<stop stop-color="#8945EC"/>
<stop offset="1" stop-color="#8945EC" stop-opacity="0.5"/>
</linearGradient>
</defs>
</svg>
