<svg width="169" height="54" viewBox="0 0 169 54" fill="none" xmlns="http://www.w3.org/2000/svg">
<mask id="mask0_5_332" style="mask-type:luminance" maskUnits="userSpaceOnUse" x="0" y="1" width="169" height="53">
<path d="M0.4646 53.639H168.923V1.41173H0.4646V53.639Z" fill="white"/>
</mask>
<g mask="url(#mask0_5_332)">
<path d="M9.38928 49.7686L10.4506 39.6801H10.4192C10.4192 39.6801 10.2528 40.072 10.1394 40.2506L5.97148 47.1651C5.48305 47.1817 5.22859 46.6112 5.08025 46.2206L2.75509 40.2506C2.68152 40.054 2.59589 39.6801 2.59589 39.6801H2.56454L1.50205 49.7686H0.449219L1.62145 38.6387H3.23869L5.6929 45.0338C5.76767 45.2125 5.85329 45.603 5.85329 45.603H5.90033C5.90033 45.603 6.05108 45.2125 6.16323 45.0338C6.16323 45.0338 8.73924 40.7215 9.99469 38.6387H11.6131L10.4421 49.7686H9.38928Z" fill="#8945EC" fill-opacity="0.5"/>
</g>
<path d="M16.5434 48.2231L16.857 45.2457C16.5314 45.5061 16.2214 45.603 15.8174 45.7166C14.7634 46.0268 12.9616 46.1237 12.8061 47.6041C12.683 48.7756 13.672 49.0845 14.7248 49.0845C15.3688 49.0845 16.0888 48.9543 16.5338 48.759C16.5338 48.759 16.5169 48.4834 16.5434 48.2231ZM14.5391 49.9472C13.0629 49.9472 11.5518 49.3767 11.7315 47.6692C11.9016 46.0586 13.1835 45.5227 14.439 45.2291C15.6799 44.9369 16.9052 44.7901 17.0174 43.7155C17.1344 42.609 16.301 42.3168 15.3893 42.3168C14.761 42.3168 13.9481 42.5772 13.3886 42.8209L13.1739 42.0246C13.8999 41.6978 14.8213 41.4541 15.575 41.4541C17.2092 41.4541 18.1378 42.1866 17.9508 43.9592L17.495 48.2882C17.4624 48.597 17.4938 49.3448 17.4938 49.3448C16.5446 49.7035 15.5135 49.9472 14.5391 49.9472Z" fill="#8945EC" fill-opacity="0.5"/>
<path d="M23.8128 49.7686L20.8485 46.1404C20.6688 45.9119 20.4722 45.6862 20.2394 45.5061L19.7908 49.7686H18.832L20.0887 37.8259H21.0474L20.3118 44.822L24.1818 41.6342H25.5326L21.1029 45.2125C21.3453 45.2942 21.5491 45.4577 21.7168 45.6515L25.1322 49.7686H23.8128Z" fill="#8945EC" fill-opacity="0.5"/>
<path d="M27.5073 39.5019C27.1298 39.5019 26.8584 39.2415 26.9006 38.851C26.9429 38.4439 27.283 38.2001 27.6447 38.2001C28.0053 38.2001 28.3093 38.4439 28.267 38.851C28.2236 39.2582 27.8691 39.5019 27.5073 39.5019ZM25.9708 49.769L26.8271 41.6331H27.7859L26.9296 49.769H25.9708Z" fill="#8945EC" fill-opacity="0.5"/>
<path d="M33.7018 49.7686L34.2662 44.3996C34.4061 43.0813 33.873 42.3169 32.5694 42.3169C31.7987 42.3169 30.9581 42.544 30.284 42.8376C30.284 42.8376 30.2804 43.163 30.2635 43.325L29.5857 49.7686H28.627L29.3011 43.3583C29.3373 43.0162 29.3168 42.3169 29.3168 42.3169C30.3708 41.8613 31.6383 41.4541 32.7696 41.4541C34.4507 41.4541 35.4384 42.3653 35.2491 44.1712L34.6594 49.7686H33.7018Z" fill="#8945EC" fill-opacity="0.5"/>
<path d="M39.6981 42.3008C38.4885 42.3008 37.5575 43.0819 37.4224 44.367C37.2874 45.6521 38.052 46.4498 39.2616 46.4498C40.4869 46.4498 41.3721 45.6521 41.5071 44.367C41.6434 43.0819 40.9234 42.3008 39.6981 42.3008ZM38.0508 49.5892C37.2536 49.8495 36.3093 50.3217 36.208 51.2814C36.0789 52.5015 37.7324 52.7618 38.6127 52.7618C39.5233 52.7618 41.2346 52.4848 41.366 51.233C41.5228 49.7512 38.9782 49.8814 38.0508 49.5892ZM38.5211 53.6412C37.1692 53.6412 35.0153 53.2008 35.2058 51.395C35.3324 50.1916 36.3479 49.5075 37.3875 49.1834C37.1294 48.9383 37.0064 48.6143 37.0474 48.2237C37.0992 47.7349 37.5081 47.2793 37.9241 47.0674C36.8882 46.6118 36.3358 45.587 36.4637 44.367C36.6566 42.5432 38.1062 41.4547 39.7874 41.4547C40.0069 41.4547 40.2396 41.4866 40.4543 41.5364C40.6388 41.5683 40.8209 41.6334 41.0247 41.6334H43.3499L43.2631 42.4629C42.8542 42.4629 42.2874 42.4795 41.9087 42.3493C41.9063 42.3659 41.8906 42.3659 41.875 42.3659C42.3212 42.9032 42.56 43.6178 42.4816 44.367C42.291 46.1728 40.8523 47.3111 39.1711 47.3111C38.9661 47.3111 38.7478 47.2959 38.5476 47.2627C38.2907 47.4579 38.0508 47.6532 38.0146 47.9952C37.8542 49.5241 42.7421 48.1586 42.4261 51.1679C42.2223 53.1039 40.0286 53.6412 38.5211 53.6412Z" fill="#8945EC" fill-opacity="0.5"/>
<path d="M50.3368 42.3169C48.8908 42.3169 47.9863 43.602 47.8235 45.1475H52.2061C52.352 43.7654 51.8756 42.3169 50.3368 42.3169ZM53.1214 46.0102H47.7173C47.5437 48.1096 48.7292 49.0845 50.2837 49.0845C50.818 49.0845 51.3956 48.971 51.9854 48.7425L52.1759 49.475C51.4813 49.8005 50.7118 49.9473 49.9738 49.9473C47.5859 49.9473 46.4559 47.996 46.7019 45.6515C46.9226 43.5535 48.1334 41.4541 50.4115 41.4541C52.5643 41.4541 53.4615 43.2281 53.2456 45.2776C53.2239 45.4895 53.1817 45.7346 53.1214 46.0102Z" fill="#8945EC" fill-opacity="0.5"/>
<path d="M56.9324 49.9472C56.2257 49.9472 55.9725 49.3614 55.8603 48.9377L53.8644 41.6341H54.9486C55.5202 43.9592 56.6683 48.5804 56.6683 48.5804H56.7142C56.7262 48.4668 56.8275 48.2549 56.8866 48.1414L59.9281 41.6341H60.981L56.9324 49.9472Z" fill="#8945EC" fill-opacity="0.5"/>
<path d="M64.4595 42.3169C63.0135 42.3169 62.109 43.602 61.9462 45.1475H66.33C66.4747 43.7654 65.9983 42.3169 64.4595 42.3169ZM67.2441 46.0102H61.84C61.6664 48.1096 62.8507 49.0845 64.4064 49.0845C64.9406 49.0845 65.5183 48.971 66.1081 48.7425L66.2986 49.475C65.6039 49.8005 64.8345 49.9473 64.0964 49.9473C61.7086 49.9473 60.5786 47.996 60.8246 45.6515C61.0453 43.5535 62.2561 41.4541 64.5342 41.4541C66.6869 41.4541 67.5842 43.2281 67.3683 45.2776C67.3466 45.4895 67.3044 45.7346 67.2441 46.0102Z" fill="#8945EC" fill-opacity="0.5"/>
<path d="M72.0279 42.4302C71.7662 42.3818 71.502 42.3499 71.2355 42.3499C70.653 42.3499 70.0428 42.4787 69.4832 42.7238C69.4832 42.7238 69.4748 43.0977 69.4567 43.2764L68.7729 49.7684H67.8153L68.4943 43.3096C68.5329 42.9523 68.5112 42.2516 68.5112 42.2516C69.4832 41.8278 70.4962 41.4539 71.5177 41.4539C71.8168 41.4539 72.1111 41.4872 72.3872 41.5523L72.0279 42.4302Z" fill="#8945EC" fill-opacity="0.5"/>
<path d="M76.4045 49.98C75.7315 51.5906 74.5147 53.1527 73.0868 53.5917L72.7913 52.8106C74.1444 52.3398 74.9717 51.0533 75.4529 49.915C75.4529 49.915 75.0586 49.9316 74.8777 49.2641L72.7732 41.6337H73.8574L75.7725 48.9705H75.8039L78.8852 41.6337H79.9067L76.4045 49.98Z" fill="#8945EC" fill-opacity="0.5"/>
<path d="M84.7689 39.5019C84.3914 39.5019 84.1201 39.2416 84.1623 38.8511C84.2045 38.4439 84.5446 38.2002 84.9064 38.2002C85.267 38.2002 85.5564 38.4439 85.513 38.8511C85.4708 39.2582 85.1307 39.5019 84.7689 39.5019ZM83.1661 52.7949C82.8972 53.1037 82.5981 53.4139 82.2604 53.641L81.7744 53.022C82.8453 52.1121 83.0636 51.3796 83.1878 50.1914L84.0887 41.6332H85.0475L84.1864 49.8161C84.0694 50.924 83.9211 51.8836 83.1661 52.7949Z" fill="#8945EC" fill-opacity="0.5"/>
<path d="M90.0053 42.3169C88.3868 42.3169 87.2544 43.6671 87.0409 45.7C86.8262 47.7343 87.6741 49.0845 89.2937 49.0845C90.9122 49.0845 92.0422 47.7343 92.2569 45.7C92.4703 43.6671 91.6237 42.3169 90.0053 42.3169ZM89.2021 49.9473C87.0337 49.9473 85.7071 48.2052 85.9712 45.7C86.2353 43.1949 87.9285 41.4541 90.0969 41.4541C92.2629 41.4541 93.5883 43.1949 93.3242 45.7C93.0613 48.2052 91.3692 49.9473 89.2021 49.9473Z" fill="#8945EC" fill-opacity="0.5"/>
<path d="M96.8176 49.9472C95.1365 49.9472 94.1499 49.0346 94.3393 47.2302L94.9278 41.6341H95.8854L95.321 47.0031C95.1811 48.32 95.7141 49.0845 97.0178 49.0845C97.7884 49.0845 98.6266 48.8726 99.302 48.5804C99.302 48.5804 99.3044 48.2549 99.3213 48.0929L100.001 41.6341H100.96L100.284 48.0597C100.247 48.4017 100.268 49.1011 100.268 49.1011C99.2139 49.5567 97.9488 49.9472 96.8176 49.9472Z" fill="#8945EC" fill-opacity="0.5"/>
<path d="M106.044 42.4302C105.782 42.3818 105.518 42.3499 105.252 42.3499C104.67 42.3499 104.06 42.4787 103.5 42.7238C103.5 42.7238 103.492 43.0977 103.474 43.2764L102.79 49.7684H101.831L102.511 43.3096C102.549 42.9523 102.528 42.2516 102.528 42.2516C103.5 41.8278 104.513 41.4539 105.534 41.4539C105.833 41.4539 106.128 41.4872 106.403 41.5523L106.044 42.4302Z" fill="#8945EC" fill-opacity="0.5"/>
<path d="M111.712 49.7686L112.276 44.3996C112.415 43.0813 111.883 42.3169 110.579 42.3169C109.809 42.3169 108.969 42.544 108.295 42.8376C108.295 42.8376 108.291 43.163 108.276 43.325L107.597 49.7686H106.639L107.313 43.3583C107.35 43.0162 107.329 42.3169 107.329 42.3169C108.382 41.8613 109.648 41.4541 110.779 41.4541C112.461 41.4541 113.448 42.3653 113.258 44.1712L112.669 49.7686H111.712Z" fill="#8945EC" fill-opacity="0.5"/>
<path d="M117.837 42.3169C116.391 42.3169 115.486 43.602 115.322 45.1475H119.706C119.852 43.7654 119.376 42.3169 117.837 42.3169ZM120.621 46.0102H115.217C115.042 48.1096 116.228 49.0845 117.784 49.0845C118.318 49.0845 118.896 48.971 119.484 48.7425L119.676 49.475C118.981 49.8005 118.212 49.9473 117.473 49.9473C115.086 49.9473 113.956 47.996 114.202 45.6515C114.423 43.5535 115.633 41.4541 117.912 41.4541C120.063 41.4541 120.962 43.2281 120.746 45.2776C120.723 45.4895 120.682 45.7346 120.621 46.0102Z" fill="#8945EC" fill-opacity="0.5"/>
<path d="M124.896 49.98C124.224 51.5906 123.007 53.1527 121.578 53.5917L121.284 52.8106C122.637 52.3398 123.463 51.0533 123.944 49.915C123.944 49.915 123.55 49.9316 123.369 49.2641L121.264 41.6337H122.35L124.264 48.9705H124.295L127.376 41.6337H128.399L124.896 49.98Z" fill="#8945EC" fill-opacity="0.5"/>
<path d="M135.212 42.3169C134.662 42.3169 133.967 42.4955 133.458 42.8528L132.867 48.4669C132.85 48.6289 132.818 48.7923 132.818 48.7923C133.207 48.971 133.823 49.0845 134.264 49.0845C136.213 49.0845 137.263 47.4587 137.455 45.6363C137.633 43.9274 137.065 42.3169 135.212 42.3169ZM134.22 49.9473C133.34 49.9473 132.514 49.7368 131.731 49.4113C131.731 49.4113 131.879 48.7425 131.912 48.4337L133.028 37.8259H133.987L133.558 41.8931C134.125 41.6009 134.783 41.4541 135.365 41.4541C137.768 41.4541 138.768 43.3098 138.523 45.6363C138.268 48.0597 136.671 49.9473 134.22 49.9473Z" fill="#8945EC" fill-opacity="0.5"/>
<path d="M143.013 42.3169C141.567 42.3169 140.662 43.602 140.499 45.1475H144.882C145.028 43.7654 144.552 42.3169 143.013 42.3169ZM145.797 46.0102H140.393C140.218 48.1096 141.405 49.0845 142.96 49.0845C143.495 49.0845 144.073 48.971 144.661 48.7425L144.852 49.475C144.157 49.8005 143.388 49.9473 142.65 49.9473C140.262 49.9473 139.132 47.996 139.378 45.6515C139.6 43.5535 140.809 41.4541 143.089 41.4541C145.24 41.4541 146.137 43.2281 145.922 45.2776C145.899 45.4895 145.859 45.7346 145.797 46.0102Z" fill="#8945EC" fill-opacity="0.5"/>
<path d="M148.751 49.9472C147.494 49.9472 146.853 49.3296 146.99 48.0112L147.572 42.4955L146.68 42.4484L146.761 41.6826L147.662 41.6341L147.897 39.4045H148.856L148.621 41.6341H152.344L152.253 42.4955H148.53L147.949 48.0112C147.879 48.6787 148.182 49.0845 148.841 49.0845C149.329 49.0845 149.895 48.9224 150.368 48.759L150.519 49.5719C149.98 49.7686 149.301 49.9472 148.751 49.9472Z" fill="#8945EC" fill-opacity="0.5"/>
<path d="M153.401 49.9472C152.144 49.9472 151.502 49.3296 151.641 48.0112L152.221 42.4955L151.331 42.4484L151.411 41.6826L152.313 41.6341L152.547 39.4045H153.506L153.272 41.6341H155.643L155.552 42.4955H153.18L152.599 48.0112C152.529 48.6787 152.833 49.0845 153.492 49.0845C153.978 49.0845 154.546 48.9224 155.018 48.759L155.169 49.5719C154.63 49.7686 153.951 49.9472 153.401 49.9472Z" fill="#8945EC" fill-opacity="0.5"/>
<path d="M159.279 42.3169C157.833 42.3169 156.928 43.602 156.764 45.1475H161.148C161.294 43.7654 160.817 42.3169 159.279 42.3169ZM162.063 46.0102H156.658C156.485 48.1096 157.671 49.0845 159.227 49.0845C159.76 49.0845 160.337 48.971 160.927 48.7425L161.118 49.475C160.423 49.8005 159.654 49.9473 158.916 49.9473C156.528 49.9473 155.398 47.996 155.644 45.6515C155.866 43.5535 157.075 41.4541 159.355 41.4541C161.506 41.4541 162.403 43.2281 162.187 45.2776C162.166 45.4895 162.125 45.7346 162.063 46.0102Z" fill="#8945EC" fill-opacity="0.5"/>
<path d="M167.105 42.4302C166.843 42.3818 166.579 42.3499 166.313 42.3499C165.73 42.3499 165.121 42.4787 164.56 42.7238C164.56 42.7238 164.552 43.0977 164.534 43.2764L163.851 49.7684H162.893L163.572 43.3096C163.61 42.9523 163.588 42.2516 163.588 42.2516C164.56 41.8278 165.575 41.4539 166.595 41.4539C166.894 41.4539 167.188 41.4872 167.465 41.5523L167.105 42.4302Z" fill="#8945EC" fill-opacity="0.5"/>
<path d="M153.435 32.9524L154.306 36.2538H160.173L160.208 36.1358L160.639 34.7262C158.178 33.5543 155.647 32.4701 153.048 31.4838L153.435 32.9524ZM153.435 32.9524L153.434 32.9507C153.434 32.9524 153.435 32.9524 153.435 32.9524Z" fill="#8945EC" fill-opacity="0.5"/>
<path d="M137.452 28.0879C137.453 28.0879 137.455 28.0896 137.456 28.0896L139.988 36.2538H145.809L147.154 31.0386L147.535 29.5649C144.13 28.4824 140.631 27.5584 137.054 26.798L137.452 28.0879Z" fill="url(#paint0_radial_5_332)"/>
<path d="M112.282 24.2637C112.282 24.2721 112.282 24.2789 112.282 24.2873C112.282 31.1044 117.053 36.6063 122.915 36.6063C128.013 36.6063 132.283 32.2914 133.166 26.6108C133.194 26.4304 133.21 26.2466 133.23 26.0628V26.0527C131.669 25.7762 130.095 25.5317 128.509 25.3176C128.508 25.331 128.508 25.3462 128.506 25.3614C128.119 28.5836 125.741 31.1044 122.871 31.1044C119.68 31.1044 117.112 28.098 117.059 24.3531C115.548 24.2991 114.035 24.262 112.521 24.262C112.442 24.262 112.361 24.2637 112.282 24.2637Z" fill="url(#paint1_radial_5_332)"/>
<path d="M100.702 24.8589V35.9739H105.62V24.4728C103.977 24.5739 102.336 24.697 100.702 24.8589Z" fill="url(#paint2_radial_5_332)"/>
<path d="M79.7496 28.7674V35.9739H84.6673V27.5095C83.0139 27.8939 81.3781 28.3205 79.7496 28.7674Z" fill="#8945EC" fill-opacity="0.5"/>
<path d="M92.8242 25.9043V35.9739H97.7419V25.1894C96.0958 25.3934 94.4571 25.6379 92.8242 25.9043Z" fill="#8945EC" fill-opacity="0.5"/>
<path d="M73.108 31.8783C72.4384 31.8783 71.9436 31.7012 71.6279 31.3101C69.9832 31.8918 68.3973 32.6219 66.788 33.271C67.6763 35.7935 69.7997 36.8204 72.619 36.8204C74.5441 36.8204 76.3061 36.2083 78.1108 35.5035L76.757 30.9374C75.5675 31.4079 74.3796 31.8783 73.108 31.8783Z" fill="#8945EC" fill-opacity="0.5"/>
<path d="M25.2439 24.2536C25.2439 31.5478 29.4259 36.4916 35.7371 36.4916C38.1556 36.4916 40.5755 35.8323 42.7884 34.7481L41.2319 30.3726C39.7547 31.1246 37.7048 31.595 36.0234 31.595C32.9927 31.595 30.8591 29.9005 30.5316 26.2786H43.7707C43.8956 25.2417 44.06 24.2064 44.06 23.1694C44.06 16.6272 40.6578 11.9211 34.7548 11.9211C28.4818 11.9211 25.2439 17.4281 25.2439 24.2536ZM34.7944 16.5816C37.5418 16.5816 38.9353 18.8883 38.9764 21.8525H30.5316C30.655 19.0265 32.1718 16.5816 34.7944 16.5816Z" fill="#8945EC" fill-opacity="0.5"/>
<path d="M132.639 12.5029L136.047 23.5387C138.029 23.8658 139.991 24.2418 141.929 24.6684L138.386 12.5029H132.639Z" fill="#8945EC" fill-opacity="0.5"/>
<path d="M162.118 12.5028L157.54 28.8281L152.399 12.5028H147.732L143.773 25.0882C145.326 25.4558 146.86 25.8588 148.38 26.2921L150.011 19.9691L151.964 27.3763C155.314 28.4554 158.581 29.6931 161.757 31.0858L167.465 12.5028H162.118Z" fill="#8945EC" fill-opacity="0.5"/>
<path d="M112.479 21.9301C113.59 21.9014 114.7 21.8812 115.802 21.8812C116.348 21.8812 116.897 21.8947 117.445 21.9014C118.294 19.4042 120.435 17.568 122.83 17.568C125.379 17.568 127.611 19.6791 128.323 22.5169C129.988 22.6821 131.638 22.8811 133.277 23.1121C132.724 16.8312 128.268 12.0156 122.787 12.0156C117.659 12.0156 113.416 16.2562 112.479 21.9301Z" fill="#8945EC" fill-opacity="0.5"/>
<path d="M100.332 14.5093C100.332 14.5093 100.702 16.8632 100.702 18.0401V22.7343C102.335 22.5505 103.975 22.3887 105.62 22.2673V17.8985C105.62 17.7568 105.577 17.428 105.577 17.428C106.767 17.0048 108.038 16.816 109.269 16.816C110.171 16.816 111.317 17.052 111.974 17.2864L113.449 12.4387C112.342 12.1083 110.949 11.9211 109.679 11.9211C106.439 11.9211 103.284 13.098 100.332 14.5093Z" fill="#8945EC" fill-opacity="0.5"/>
<path d="M79.7496 2.76033V26.9329C81.3766 26.4591 83.0139 26.0055 84.6673 25.5974V18.5561C86.0197 17.6152 87.7833 16.816 89.3809 16.816C91.4308 16.816 92.8243 18.5089 92.8243 21.0988V23.8759C94.4557 23.5859 96.0944 23.3279 97.742 23.1036V20.2524C97.742 15.027 95.325 11.9211 90.7347 11.9211C88.6437 11.9211 86.5542 12.5315 84.6673 13.4724V0.553173L79.7496 2.76033Z" fill="#8945EC" fill-opacity="0.5"/>
<path d="M71.2196 4.90514L66.3049 7.1123V12.5316L63.9686 12.6749V17.1448L66.3049 17.2865V30.2782C66.3049 30.7857 66.3416 31.2562 66.4047 31.7013C67.9935 31.0235 69.5985 30.3692 71.224 29.7605V17.3337H76.9625V12.4388H71.224V4.90514H71.2196Z" fill="#8945EC" fill-opacity="0.5"/>
<path d="M46.6474 13.9445L48.3272 18.229C50.0482 17.3809 52.1803 16.816 54.0246 16.816C55.2537 16.816 57.468 17.0048 57.468 18.981C57.468 23.0766 44.7605 19.8291 44.7605 29.3373C44.7605 34.8425 50.0071 36.4916 53.9439 36.4916C55.1744 36.4916 56.1465 36.4022 56.9717 36.2437C58.7455 35.286 60.5473 34.3687 62.3784 33.5037C62.3798 33.4127 62.3872 32.6202 62.3872 31.6895V19.5931C62.3872 14.1333 59.1083 11.9211 54.7221 11.9211C52.057 11.9211 49.0659 12.6748 46.6474 13.9445ZM50.173 28.9124C50.173 26.2786 55.7882 27.1858 57.468 25.3512V30.2309C57.468 30.5597 57.4857 31.2005 57.4857 31.2005C56.3359 31.6237 55.1729 31.7839 53.985 31.7839C52.2214 31.7839 50.173 31.3607 50.173 28.9124Z" fill="#8945EC" fill-opacity="0.5"/>
<path d="M0.4646 5.06192V35.9739H5.58788V21.6654H17.9268V35.9739H23.0501V2.77382L17.9268 5.07372V16.7688H5.58788V2.75864L0.4646 5.06192Z" fill="#8945EC" fill-opacity="0.5"/>
<defs>
<radialGradient id="paint0_radial_5_332" cx="0" cy="0" r="1" gradientUnits="userSpaceOnUse" gradientTransform="translate(114.668 185.287) rotate(-90) scale(159.733 139.106)">
<stop stop-color="#8945EC" stop-opacity="0.5"/>
<stop offset="1" stop-color="#8945EC" stop-opacity="0.5"/>
</radialGradient>
<radialGradient id="paint1_radial_5_332" cx="0" cy="0" r="1" gradientUnits="userSpaceOnUse" gradientTransform="translate(114.896 186.506) rotate(-90) scale(161.041 140.245)">
<stop stop-color="#8945EC" stop-opacity="0.5"/>
<stop offset="1" stop-color="#8945EC" stop-opacity="0.5"/>
</radialGradient>
<radialGradient id="paint2_radial_5_332" cx="0" cy="0" r="1" gradientUnits="userSpaceOnUse" gradientTransform="translate(114.82 185.461) rotate(-90) scale(159.889 139.242)">
<stop stop-color="#8945EC" stop-opacity="0.5"/>
<stop offset="1" stop-color="#8945EC" stop-opacity="0.5"/>
</radialGradient>
</defs>
</svg>
