<svg width="237" height="38" viewBox="0 0 237 38" fill="none" xmlns="http://www.w3.org/2000/svg">
<path d="M65.6997 30.4563H61.1377V19.449H51.6569V30.4563H47.095V7.58862H51.6569V16.3785H61.1377V7.58862H65.6997V30.4563Z" fill="#8945EC" fill-opacity="0.5"/>
<path d="M86.0908 10.661H78.4876V16.9324H85.9295V20.0029H78.4876V27.3878H87.4824V30.4563H73.9257V7.58862H86.0908V10.661Z" fill="#8945EC" fill-opacity="0.5"/>
<path d="M98.8788 18.2395H100.724C103.862 18.2395 104.866 15.79 104.866 14.1225C104.866 11.5408 103.053 10.661 101.242 10.661H98.8788V18.2395ZM94.3149 7.58862H102.178C106.516 7.58862 109.428 9.68166 109.428 13.5687C109.428 16.9668 107.746 18.9257 105.609 20.2003L111.241 30.4563H105.994L101.597 21.3119H98.8788V30.4582H94.3149V7.59049V7.58862Z" fill="#8945EC" fill-opacity="0.5"/>
<path d="M121.504 27.6504H123.832C126.359 27.6504 128.265 26.3086 128.265 23.7595C128.265 21.082 126.292 19.9397 123.799 19.9397H121.504V27.6504ZM121.504 17.1279H122.926C125.548 17.1279 127.329 15.4296 127.329 13.306C127.329 11.282 125.84 10.3985 123.864 10.3985H121.504V17.1279ZM116.94 30.4563V7.58862H125.126C128.944 7.58862 131.632 9.35387 131.632 12.457C131.632 16.1159 128.688 17.6185 127.101 18.044V18.1099C129.918 18.2402 133.054 20.2011 133.054 23.6951C133.054 27.6511 129.785 30.4571 124.447 30.4571L116.94 30.4563Z" fill="#8945EC" fill-opacity="0.5"/>
<path d="M150.355 21.4097C149.383 18.4025 148.411 15.6252 147.344 12.0985H147.279C146.34 15.6252 145.273 18.4025 144.206 21.4097H150.355ZM149.738 7.58862L158.249 30.4563H153.136L151.035 24.2177H143.008L140.679 30.4563H136.732L145.954 7.58862H149.738Z" fill="#8945EC" fill-opacity="0.5"/>
<path d="M163.82 7.58862H168.382V27.3878H177.379V30.4563H163.82V7.58862Z" fill="#8945EC" fill-opacity="0.5"/>
<path d="M183.465 7.58862H188.027V30.4563H183.465V7.58862Z" fill="#8945EC" fill-opacity="0.5"/>
<path d="M208.388 10.661H200.817V18.1744H208.261V21.243H200.817V30.4563H196.255V7.58862H208.388L208.388 10.661Z" fill="#8945EC" fill-opacity="0.5"/>
<path d="M227.046 10.661H219.441V16.9324H226.883V20.0029H219.441V27.3878H228.436V30.4563H214.877V7.58862H227.046V10.661Z" fill="#8945EC" fill-opacity="0.5"/>
<path d="M2.71338 18.9832C8.98961 20.9746 14.9089 27.1578 16.7011 35.0601C7.87712 33.9025 2.73236 26.5828 2.71338 18.9832Z" fill="#8945EC" fill-opacity="0.5"/>
<path d="M34.3242 18.9832C28.048 20.9746 22.0546 27.1578 20.3365 35.0601C29.1586 33.9025 34.3034 26.5828 34.3242 18.9832Z" fill="#8945EC" fill-opacity="0.5"/>
<path d="M18.5387 35.0601C11.8486 24.6335 13.2933 10.3333 18.5448 2.63019C23.5548 10.3333 25.121 24.6335 18.5387 35.0601Z" fill="#8945EC" fill-opacity="0.5"/>
<path d="M18.5634 0.527649C8.40486 0.527649 0.169434 8.8498 0.169434 19.104C0.169434 29.3543 8.40486 37.6668 18.5634 37.6668C28.7087 37.6668 36.9441 29.3543 36.9441 19.104C36.9441 8.8498 28.7086 0.527649 18.5634 0.527649ZM18.5634 36.5283C9.01615 36.5283 1.29902 28.7218 1.29902 19.104C1.29902 9.46697 9.01615 1.66614 18.5634 1.66614C28.0936 1.66614 35.8145 9.46697 35.8145 19.104C35.8145 28.7218 28.0936 36.5283 18.5634 36.5283Z" fill="#8945EC" fill-opacity="0.5"/>
<path d="M232.409 28.0068C232.409 26.8665 233.296 25.9886 234.401 25.9886C235.488 25.9886 236.358 26.8665 236.358 28.0068C236.358 29.1972 235.488 30.0539 234.401 30.0539C233.296 30.0539 232.409 29.1972 232.409 28.0068ZM234.401 30.443C235.705 30.443 236.831 29.4348 236.831 28.0068C236.831 26.6058 235.705 25.59 234.401 25.59C233.058 25.59 231.944 26.6058 231.944 28.0068C231.944 29.4348 233.058 30.443 234.401 30.443ZM233.882 28.2215H234.374L235.116 29.4348H235.597L234.788 28.1793C235.192 28.1348 235.502 27.9168 235.502 27.4241C235.502 26.8665 235.192 26.6058 234.535 26.6058H233.47V29.4348H233.882V28.2215ZM233.882 27.8478V26.9757H234.459C234.771 26.9757 235.063 27.0447 235.063 27.3878C235.063 27.8287 234.759 27.8478 234.378 27.8478H233.882Z" fill="#8945EC" fill-opacity="0.5"/>
</svg>
