<svg width="62" height="63" viewBox="0 0 62 63" fill="none" xmlns="http://www.w3.org/2000/svg">
<rect x="1.89551" y="1.45795" width="58.8364" height="60.0532" rx="14" fill="url(#paint0_linear_209_3)" stroke="white" stroke-width="2"/>
<g clip-path="url(#clip0_209_3)">
<path d="M41.0637 40.4846H21.5637C21.1512 40.4846 20.8137 40.8221 20.8137 41.2346V42.7346C20.8137 43.1471 21.1512 43.4846 21.5637 43.4846H41.0637C41.4762 43.4846 41.8137 43.1471 41.8137 42.7346V41.2346C41.8137 40.8221 41.4762 40.4846 41.0637 40.4846ZM44.0637 25.4846C42.8215 25.4846 41.8137 26.4924 41.8137 27.7346C41.8137 28.0674 41.8887 28.3767 42.02 28.6627L38.6262 30.6971C37.9043 31.1283 36.9715 30.8846 36.5543 30.1533L32.734 23.4689C33.2356 23.0564 33.5637 22.4377 33.5637 21.7346C33.5637 20.4924 32.5559 19.4846 31.3137 19.4846C30.0715 19.4846 29.0637 20.4924 29.0637 21.7346C29.0637 22.4377 29.3918 23.0564 29.8934 23.4689L26.0731 30.1533C25.6559 30.8846 24.7184 31.1283 24.0012 30.6971L20.6122 28.6627C20.7387 28.3814 20.8184 28.0674 20.8184 27.7346C20.8184 26.4924 19.8106 25.4846 18.5684 25.4846C17.3262 25.4846 16.3137 26.4924 16.3137 27.7346C16.3137 28.9767 17.3215 29.9846 18.5637 29.9846C18.6856 29.9846 18.8075 29.9658 18.9247 29.9471L22.3137 38.9846H40.3137L43.7028 29.9471C43.82 29.9658 43.9418 29.9846 44.0637 29.9846C45.3059 29.9846 46.3137 28.9767 46.3137 27.7346C46.3137 26.4924 45.3059 25.4846 44.0637 25.4846Z" fill="#FFC700"/>
</g>
<defs>
<linearGradient id="paint0_linear_209_3" x1="55.6483" y1="62.5111" x2="-5.18814" y2="-9.27589" gradientUnits="userSpaceOnUse">
<stop stop-color="#8945EC"/>
<stop offset="1" stop-color="#8945EC" stop-opacity="0.5"/>
</linearGradient>
<clipPath id="clip0_209_3">
<rect width="30" height="24" fill="white" transform="translate(16.3137 19.4846)"/>
</clipPath>
</defs>
</svg>
