<svg width="61" height="63" viewBox="0 0 61 63" fill="none" xmlns="http://www.w3.org/2000/svg">
<rect x="1" y="1" width="58.8364" height="60.0532" rx="14" fill="url(#paint0_linear_209_9)" stroke="white" stroke-width="2"/>
<path d="M37.3891 19.2767C37.6971 19.057 38.0771 18.9628 38.452 19.0133C38.8269 19.0638 39.1685 19.2553 39.4073 19.5486C39.646 19.842 39.7641 20.2153 39.7375 20.5927C39.7109 20.97 39.5415 21.323 39.2639 21.5799L39.1181 21.6975L35.992 23.9308C35.5432 24.2508 35.1941 24.6912 34.985 25.2012C34.776 25.7112 34.7155 26.27 34.8106 26.8129L34.8582 27.039L39.8322 22.065C40.1 21.7982 40.4593 21.6432 40.8371 21.6317C41.215 21.6201 41.5831 21.7529 41.8666 22.0029C42.1502 22.2529 42.3279 22.6015 42.3638 22.9778C42.3996 23.3541 42.2909 23.73 42.0596 24.029L41.9361 24.1689L36.9621 29.1429C38.0111 29.4107 39.1716 29.0834 39.9171 28.2055L40.0703 28.0091L42.3036 24.8831C42.524 24.5763 42.8527 24.3649 43.2231 24.2915C43.5936 24.2182 43.9781 24.2885 44.2987 24.4881C44.6192 24.6878 44.8519 25.0018 44.9495 25.3667C45.0471 25.7315 45.0022 26.1198 44.8241 26.4528L44.7244 26.612L42.4926 29.7396C41.6666 30.8954 40.4515 31.7147 39.0702 32.047C37.6889 32.3794 36.2342 32.2025 34.9728 31.5489L34.705 31.4001L31.2873 34.8163L37.4724 41.0029C37.7286 41.2591 37.8825 41.6 37.9053 41.9616C37.928 42.3232 37.818 42.6807 37.5959 42.967L37.4724 43.1068C37.2162 43.363 36.8754 43.5169 36.5138 43.5396C36.1522 43.5624 35.7947 43.4524 35.5084 43.2303L35.3686 43.1068L29.1834 36.9202L22.9982 43.1068C22.742 43.363 22.4011 43.5169 22.0395 43.5396C21.6779 43.5624 21.3204 43.4524 21.0342 43.2303L20.8943 43.1068C20.6381 42.8506 20.4842 42.5097 20.4615 42.1481C20.4388 41.7866 20.5487 41.4291 20.7708 41.1428L20.8943 41.0029L27.0795 34.8163L24.684 32.4208C24.0537 32.7612 23.3731 32.9988 22.6679 33.1245L22.2959 33.1796C21.4057 33.2919 20.5016 33.1959 19.6549 32.8989C18.8082 32.602 18.0421 32.1123 17.4171 31.4685C16.0348 30.0848 15.2448 28.3454 15.0484 26.6745C14.8549 25.0304 15.2269 23.2687 16.4321 22.065C17.6358 20.8598 19.396 20.4878 21.0401 20.6813C22.711 20.8792 24.4519 21.6692 25.8341 23.0515C26.4777 23.6763 26.9672 24.4422 27.2642 25.2886C27.5611 26.135 27.6573 27.0388 27.5452 27.9288C27.4559 28.6802 27.2372 29.3929 26.9411 30.0133L26.7864 30.3169L29.1819 32.7124L32.6011 29.2962C31.8845 28.0728 31.6322 26.6325 31.8901 25.2384C32.1479 23.8443 32.8989 22.5895 34.0056 21.7034L34.2616 21.51L37.3891 19.2767Z" fill="#FFC700"/>
<defs>
<linearGradient id="paint0_linear_209_9" x1="54.7528" y1="62.0532" x2="-6.08365" y2="-9.73383" gradientUnits="userSpaceOnUse">
<stop stop-color="#8945EC"/>
<stop offset="1" stop-color="#8945EC" stop-opacity="0.5"/>
</linearGradient>
</defs>
</svg>
