<svg width="62" height="63" viewBox="0 0 62 63" fill="none" xmlns="http://www.w3.org/2000/svg">
<rect x="1.62927" y="1.03485" width="58.8364" height="60.0532" rx="14" fill="url(#paint0_linear_209_5)" stroke="white" stroke-width="2"/>
<g clip-path="url(#clip0_209_5)">
<path d="M31.7445 16.0917C31.7445 16.0917 30.9851 16.4792 30.2265 17.0499C29.8472 17.3353 29.4633 17.6664 29.1598 18.0476C28.8563 18.4288 28.6089 18.8815 28.6465 19.4109C28.6884 19.9991 29.0871 20.4373 29.5125 20.6999C29.9379 20.9625 30.4209 21.1215 30.8757 21.2782C31.3306 21.4349 31.7576 21.5895 32.0284 21.7568C32.2993 21.924 32.383 22.0324 32.3965 22.2234C32.3981 22.245 32.372 22.3608 32.2434 22.5224C32.1148 22.6839 31.9079 22.8698 31.6915 23.0327C31.2586 23.3583 30.807 23.5917 30.807 23.5917L31.288 24.5301C31.288 24.5301 31.8052 24.2668 32.3255 23.8754C32.5857 23.6797 32.8514 23.452 33.0685 23.1793C33.2856 22.9066 33.4783 22.5676 33.4485 22.1485C33.4067 21.5602 33.0079 21.1221 32.5825 20.8594C32.1572 20.5967 31.6742 20.4379 31.2193 20.2812C30.7644 20.1244 30.3375 19.9699 30.0667 19.8026C29.7958 19.6353 29.712 19.527 29.6985 19.336C29.6891 19.204 29.7698 18.9746 29.9848 18.7045C30.1998 18.4344 30.5249 18.145 30.8605 17.8925C31.5317 17.3876 32.2255 17.0301 32.2255 17.0301L31.7445 16.0917ZM24.2445 18.9042C24.2445 18.9042 23.4851 19.2917 22.7265 19.8624C22.3472 20.1478 21.9633 20.4789 21.6598 20.8601C21.3563 21.2413 21.1089 21.694 21.1465 22.2234C21.1884 22.8116 21.5871 23.2498 22.0125 23.5124C22.4379 23.775 22.9209 23.934 23.3757 24.0907C23.8306 24.2474 24.2576 24.402 24.5284 24.5693C24.7993 24.7365 24.883 24.8449 24.8965 25.0359C24.8981 25.0575 24.872 25.1733 24.7434 25.3349C24.6148 25.4964 24.4079 25.6823 24.1915 25.8452C23.7586 26.1708 23.307 26.4042 23.307 26.4042L23.788 27.3426C23.788 27.3426 24.3052 27.0793 24.8255 26.6879C25.0857 26.4922 25.3514 26.2645 25.5685 25.9918C25.7856 25.7191 25.9783 25.38 25.9485 24.961C25.9067 24.3727 25.5079 23.9346 25.0825 23.6719C24.6572 23.4092 24.1742 23.2504 23.7193 23.0937C23.2644 22.9369 22.8375 22.7824 22.5667 22.6151C22.2958 22.4478 22.212 22.3395 22.1985 22.1485C22.1891 22.0165 22.2698 21.7871 22.4848 21.517C22.6998 21.2469 23.0249 20.9575 23.3605 20.705C24.0317 20.2001 24.7255 19.8426 24.7255 19.8426L24.2445 18.9042ZM39.2445 18.9042C39.2445 18.9042 38.4851 19.2917 37.7265 19.8624C37.3472 20.1478 36.9633 20.4789 36.6598 20.8601C36.3563 21.2413 36.1089 21.694 36.1465 22.2234C36.1884 22.8116 36.5871 23.2498 37.0125 23.5124C37.4379 23.775 37.9209 23.934 38.3757 24.0907C38.8306 24.2474 39.2576 24.402 39.5284 24.5693C39.7993 24.7365 39.883 24.8449 39.8965 25.0359C39.8981 25.0575 39.872 25.1733 39.7434 25.3349C39.6148 25.4964 39.4079 25.6823 39.1915 25.8452C38.7586 26.1708 38.307 26.4042 38.307 26.4042L38.788 27.3426C38.788 27.3426 39.3052 27.0793 39.8255 26.6879C40.0857 26.4922 40.3514 26.2645 40.5685 25.9918C40.7856 25.7191 40.9783 25.38 40.9485 24.961C40.9067 24.3727 40.5079 23.9346 40.0825 23.6719C39.6572 23.4092 39.1742 23.2504 38.7193 23.0937C38.2644 22.9369 37.8375 22.7824 37.5667 22.6151C37.2958 22.4478 37.212 22.3395 37.1985 22.1485C37.1891 22.0165 37.2698 21.7871 37.4848 21.517C37.6998 21.2469 38.0249 20.9575 38.3605 20.705C39.0317 20.2001 39.7255 19.8426 39.7255 19.8426L39.2445 18.9042ZM31.0475 25.8772C30.2858 25.8772 29.7706 26.2237 29.3769 26.8144C29.2139 27.0589 29.0823 27.3476 28.9834 27.6619C29.6467 27.5678 30.3352 27.5181 31.0475 27.5181C31.7598 27.5181 32.4483 27.5678 33.1116 27.6619C33.0127 27.3476 32.8811 27.0589 32.7181 26.8144C32.3244 26.2237 31.8092 25.8772 31.0475 25.8772ZM31.0475 28.5725C24.0498 28.5725 19.6949 33.6139 19.4143 38.7681H42.6807C42.4001 33.6139 38.0451 28.5725 31.0475 28.5725V28.5725ZM17.3578 39.0397L16.6122 39.7853C17.6739 40.8471 18.86 40.8772 19.7975 40.8772H42.2975C43.235 40.8772 44.4211 40.8471 45.4828 39.7853L44.7372 39.0397C43.9239 39.8529 43.235 39.8228 42.2975 39.8228H19.7975C18.86 39.8228 18.1711 39.8529 17.3578 39.0397ZM22.6577 41.9319L23.8297 43.6899H38.2653L39.4373 41.9319H22.6577Z" fill="#FFC700"/>
</g>
<defs>
<linearGradient id="paint0_linear_209_5" x1="55.382" y1="62.088" x2="-5.45437" y2="-9.69898" gradientUnits="userSpaceOnUse">
<stop stop-color="#8945EC"/>
<stop offset="1" stop-color="#8945EC" stop-opacity="0.5"/>
</linearGradient>
<clipPath id="clip0_209_5">
<rect width="30" height="30" fill="white" transform="translate(16.0475 14.8908)"/>
</clipPath>
</defs>
</svg>
