<svg width="56" height="56" viewBox="0 0 56 56" fill="none" xmlns="http://www.w3.org/2000/svg">
<circle cx="27.9646" cy="27.7253" r="27.5" fill="white"/>
<circle cx="27.9646" cy="27.7253" r="26" stroke="#8945EC" stroke-opacity="0.47" stroke-width="3"/>
<path fill-rule="evenodd" clip-rule="evenodd" d="M21.6335 20.9854C21.6604 20.7582 21.7398 20.5405 21.8657 20.3494C21.9915 20.1584 22.1602 19.9994 22.3583 19.8851C22.5564 19.7708 22.7785 19.7044 23.0068 19.691C23.2352 19.6777 23.4635 19.7179 23.6735 19.8084C24.7355 20.2624 27.1155 21.3414 30.1355 23.0844C33.1565 24.8284 35.2815 26.3514 36.2045 27.0424C36.9925 27.6334 36.9945 28.8054 36.2055 29.3984C35.2915 30.0854 33.1925 31.5884 30.1355 33.3544C27.0755 35.1204 24.7235 36.1864 23.6715 36.6344C22.7655 37.0214 21.7515 36.4344 21.6335 35.4574C21.4955 34.3154 21.2375 31.7224 21.2375 28.2204C21.2375 24.7204 21.4945 22.1284 21.6335 20.9854Z" fill="#FFBE41"/>
</svg>
